<svg xmlns="http://www.w3.org/2000/svg" width="820" height="220" viewBox="0 0 820 220" fill="none">
  <g>
    <svg x="0" y="0" width="220" height="220" viewBox="0 0 256 256">
      <defs>
        <linearGradient id="g2" x1="48" y1="24" x2="208" y2="232" gradientUnits="userSpaceOnUse">
          <stop stop-color="#3B82F6" stop-opacity="0.95"/>
          <stop offset="1" stop-color="#3B82F6" stop-opacity="0.25"/>
        </linearGradient>
      </defs>
      <rect x="24" y="24" width="208" height="208" rx="56" fill="#0F131A" stroke="#1C2430" stroke-width="2"/>
      <path d="M94 98c0-20 16-36 36-36h14c20 0 36 16 36 36 0 16-10 29-24 34 16 5 28 20 28 38 0 22-18 40-40 40h-16c-20 0-36-16-36-36v-8h26v6c0 8 6 14 14 14h10c10 0 18-8 18-18s-8-18-18-18h-22v-22h18c8 0 14-6 14-14s-6-14-14-14h-10c-8 0-14 6-14 14v6H94v-8z" fill="url(#g2)"/>
    </svg>
    <text x="250" y="125" font-family="Segoe UI, Inter, system-ui, -apple-system, Arial" font-size="74" font-weight="800" fill="#E8EEF7" letter-spacing="0.5">Stressless</text>
    <text x="252" y="162" font-family="Segoe UI, Inter, system-ui, -apple-system, Arial" font-size="18" font-weight="500" fill="#9AA8BD" letter-spacing="3">UNIVERSAL API CLIENT</text>
  </g>
</svg>
